<svg id="Layer_1" width="30" height="30" data-name="Layer 1" xmlns="http://www.w3.org/2000/svg" viewBox="0 0 14.5 14.5"><defs><style>.cls-1{fill:#1a1a1a}.cls-2{fill:none;stroke:#1a1a1a;stroke-miterlimit:10}</style></defs><path class="cls-1" d="M306.48 389.81a6.25 6.25 0 11-6.25 6.25 6.26 6.26 0 016.25-6.25m0-1a7.25 7.25 0 107.25 7.25 7.25 7.25 0 00-7.25-7.25z" transform="translate(-299.23 -388.81)"/><path class="cls-1" d="M306.48 391.91a4.15 4.15 0 11-4.15 4.15 4.15 4.15 0 014.15-4.15m0 6.7a2.55 2.55 0 002.55-2.55v-.13a2.58 2.58 0 00-.81-1.74 2.54 2.54 0 00-3.47 0 2.59 2.59 0 00-.82 1.77v.1a2.48 2.48 0 00.69 1.74 2.54 2.54 0 001.86.81m0-7.2a4.65 4.65 0 104.65 4.65 4.65 4.65 0 00-4.65-4.65zm0 6.7a2 2 0 01-1.49-.65 2 2 0 01-.56-1.4V396a2.06 2.06 0 01.66-1.4 2 2 0 012.79 0 2.07 2.07 0 01.65 1.4v.1a2 2 0 01-2 2.05z" transform="translate(-299.23 -388.81)"/><path class="cls-2" d="M7.25 11.5V9.3M7.25 5.2V2.79M11.61 7.15H9.3M5.2 7.15H2.9M10.33 10.23L8.75 8.65M5.86 5.75L4.18 4.07M5.76 8.65l-1.58 1.58M10.33 4.07L8.65 5.75"/></svg>