<svg width="30" height="30" fill="#1a1a1a" xmlns="http://www.w3.org/2000/svg" viewBox="0 0 14.4 14.4"><path d="M7.2 12c-2.7 0-4.8-2.1-4.8-4.8s2.1-4.8 4.8-4.8S12 4.5 12 7.2 9.9 12 7.2 12zm0-.5c2.4 0 4.3-1.9 4.3-4.3S9.6 2.9 7.2 2.9 2.9 4.8 2.9 7.2s1.9 4.3 4.3 4.3"/><path d="M7.2 14.4l-1.3-.6-1.4.1-1-1.1-1.4-.5-.5-1.4-1.1-1 .1-1.4L0 7.2l.6-1.3-.1-1.5 1.1-1L2.1 2l1.4-.5 1-1.1 1.4.1L7.2 0l1.3.6H10l1 1.1 1.4.5.5 1.4 1.1 1-.1 1.4.6 1.3-.6 1.3.1 1.4-1.1 1-.5 1.4-1.4.5-1 1.1-1.4-.1-1.4.5zm0-1.1l.9-.4.2-.1h1.2l.7-.7.2-.2.2-.1.9-.3.3-.9.1-.2.2-.2.7-.7V8.3l.1-.2.4-.9-.4-.9-.1-.2V4.9l-.7-.7L12 4l-.1-.2-.3-.9-.9-.3-.2-.1-.2-.2-.7-.8H8.1l-.9-.4-.9.4-.2.1H4.9l-.7.7-.2.1-.2.1-.9.4-.4.9-.1.2-.1.2-.8.7v1.4l-.4.9.4.9.1.2v1.2l.7.7.2.2.1.2.3.9.9.3.2.1.2.2.7.7h1.2l.2.1.9.4"/><path d="M9 9.6l-1.8-.9-1.8.9.3-1.9-1.4-1.4 2-.3.9-1.7.9 1.7 2 .3-1.4 1.4.3 1.9zm-.7-.9l-.2-1v-.3l.2-.2.7-.5-1-.2h-.2l-.1-.2-.5-.9-.5.9-.1.2h-.2l-1 .1.7.7.2.2v.3l-.2 1 .9-.5.2-.1.2.1.9.4"/></svg>