<svg width="24" height="18" data-name="Layer 1" xmlns="http://www.w3.org/2000/svg" viewBox="0 0 12.98 9.48"><defs><style>.cls-1,.cls-2{fill:none;stroke:gray;stroke-miterlimit:10;stroke-width:.5px}.cls-1{fill-rule:evenodd}</style></defs><path class="cls-1" d="M11.14 6.05a1.59 1.59 0 11-1.59 1.59 1.59 1.59 0 011.59-1.59zM1.84 6.05A1.59 1.59 0 11.25 7.64a1.59 1.59 0 011.59-1.59z"/><path class="cls-2" d="M.67 4.29s0-1.65 1.17-1.65H4.1A1.73 1.73 0 015.52 3.7h1.67s.34-1.67 1.18-1.67h2.37c1.46 0 1.46 2.26 1.46 2.26S7.78 3.9 7.78 8.12H5.13a3.59 3.59 0 00-3.29-3.83zM9.67.16l2.04 2.37"/></svg>