<svg width="26" height="16" data-name="Layer 1" xmlns="http://www.w3.org/2000/svg" viewBox="0 0 12.98 7.83"><defs><style>.cls-1,.cls-2{fill:none;stroke:#1a1a1a;stroke-miterlimit:10;stroke-width:.5px}.cls-1{fill-rule:evenodd}</style></defs><path class="cls-1" d="M9.26 5.08V.93a.67.67 0 00-.68-.68H.92a.67.67 0 00-.68.68v5.41H1.5"/><path class="cls-2" d="M8.01 6.33h-4"/><path class="cls-1" d="M9.26 5.08V1.69h2.75a.68.68 0 01.68.68v4h-2.21"/><path class="cls-1" d="M9.27 5.08a1.25 1.25 0 11-1.25 1.25 1.25 1.25 0 011.25-1.25zM2.76 5.08a1.25 1.25 0 11-1.25 1.25 1.25 1.25 0 011.25-1.25z"/><path class="cls-2" d="M9.27 3.94h3.46"/></svg>