<svg width="15" height="10" fill="gray" xmlns="http://www.w3.org/2000/svg" viewBox="0 0 7.2 4.8"><path d="M6.2 3.1c.2.3.5.5.7.8.1.1.2.3.3.4.1.2 0 .5-.2.5H6c-.3 0-.5-.1-.7-.3-.2-.2-.3-.4-.4-.6-.1 0-.2-.1-.2-.2-.2-.1-.3 0-.4.1-.1.2-.1.4-.1.6 0 .3-.1.4-.3.4-.5 0-1-.1-1.5-.4-.4-.3-.8-.7-1-1.1C.8 2.4.4 1.5 0 .5 0 .3 0 .2.2.2h1c.1 0 .2.1.3.3.2.5.4 1 .7 1.5.1.1.2.3.3.3.1.1.2.1.3-.1 0-.1.1-.2.1-.3V.8c0-.2-.1-.4-.3-.4-.1 0-.1-.1 0-.1-.1-.2 0-.3.2-.3H4c.2 0 .2.1.3.4V2c0 .1 0 .3.2.4.1 0 .2-.1.2-.1.2-.5.4-.9.6-1.3.1-.2.1-.4.2-.6 0-.1.1-.2.3-.2H7c.2 0 .2.1.2.4-.1.3-.3.6-.5.9l-.6.9c-.1.3-.1.4.1.7z"/></svg>